<svg width="78" height="32" viewBox="0 0 78 32" fill="none" xmlns="http://www.w3.org/2000/svg">
<mask id="mask0_3152_2167" style="mask-type:luminance" maskUnits="userSpaceOnUse" x="0" y="0" width="78" height="32">
<path d="M77.551 0.979614H0V31.5764H77.551V0.979614Z" fill="white"/>
</mask>
<g mask="url(#mask0_3152_2167)">
<path d="M66.1537 22.2135C64.1196 22.2135 62.7263 22.6037 62.5312 22.6593V22.7987V25.5017C62.5312 26.5606 62.8656 27.5081 62.8656 27.5081C63.5344 29.4865 65.9587 31.465 66.1259 31.6044C66.2931 31.465 68.7174 29.5144 69.3862 27.5081C69.3862 27.5081 69.7206 26.5606 69.7206 25.5017V22.7987V22.6593C69.5812 22.6037 68.188 22.2135 66.1537 22.2135ZM66.2095 24.7214C65.7079 24.7214 65.3178 24.3035 65.3178 23.8297C65.3178 23.3281 65.7079 22.9381 66.2095 22.9381C66.7111 22.9381 67.1012 23.3561 67.1012 23.8297C67.1012 24.3035 66.6832 24.7214 66.2095 24.7214Z" fill="#95E6E2"/>
<path d="M24.7451 1.59265H21.6799V19.6219H24.7451V1.59265Z" fill="#01313D"/>
<path d="M0 19.6219H3.17672V13.1013H15.2984V10.3426H3.17672V4.32352H18.0293V1.59265H0V19.6219Z" fill="#01313D"/>
<path d="M66.2096 23.8018C66.5161 23.8018 66.7391 23.551 66.7669 23.2445V17.6713H65.6802V23.3002C65.6802 23.5789 65.931 23.8018 66.2096 23.8018Z" fill="#01313D"/>
<path d="M65.8474 0.979614C58.9645 0.979614 54.1437 4.63006 54.1437 10.3704C54.1437 16.0272 59.076 20.1514 65.8474 20.1514C66.154 20.1514 66.4604 20.1235 66.767 20.1235V17.2255C66.4604 17.2534 66.154 17.2534 65.8474 17.2534C61.6118 17.2534 57.0139 15.1077 57.0139 10.3983C57.0139 5.6611 61.4446 3.79408 65.8474 3.79408C72.368 3.79408 74.6809 7.22159 74.6809 10.3983C74.6809 14.411 71.5042 16.5567 67.8538 17.114V20.0678C73.6499 19.3711 77.551 15.6092 77.551 10.4262C77.551 4.63006 72.7303 0.979614 65.8474 0.979614Z" fill="#01313D"/>
<path d="M38.7059 10.3147V13.0735H48.0411V15.4142C46.7035 16.083 43.5825 17.4484 39.7927 17.4205C35.167 17.3648 31.4887 14.8569 31.4887 10.2032C31.4887 6.46921 34.4424 3.90554 39.2354 3.90554C42.5236 3.90554 46.5084 4.71366 47.428 7.66745H50.744C49.5737 2.73517 43.9169 0.979614 39.2354 0.979614C32.7983 0.979614 28.3676 4.79726 28.3676 10.2032C28.3676 16.6403 33.4671 20.2629 39.7648 20.3186C39.8206 20.3186 39.8763 20.3186 39.932 20.3186C45.7282 20.3186 50.0474 17.6156 50.2424 17.5041L50.9112 17.0862V10.3704V10.3147H47.2608H38.7059Z" fill="#01313D"/>
</g>
</svg>
