<svg width="34" height="40" viewBox="0 0 34 40" fill="none" xmlns="http://www.w3.org/2000/svg">
<rect x="7.06323" y="5.18616" width="19.6206" height="23.0835" fill="white"/>
<path d="M26.1994 10.0615C21.6628 9.91298 17.1197 9.88392 12.5798 9.9711V16.345C16.1865 16.3385 19.7997 16.3385 23.4064 16.345V19.4157C19.7997 19.4415 16.1865 19.4415 12.5798 19.4189V27.2716C11.4368 27.2393 10.2938 27.1974 9.15074 27.1425V7.02311C14.8304 6.75511 20.5197 6.75511 26.1994 7.02311V10.0615ZM16.8 0.0002178H16.7677C7.36838 -0.0223846 0.904096 1.72123 0 1.95371V14.4399C0 19.0799 1.61123 23.2742 1.61123 23.2742C4.75296 32.0827 15.9734 39.3574 16.7677 39.9742V40H16.8V39.9742C17.6073 39.3542 28.8439 32.0827 31.9921 23.2742C31.9921 23.2742 33.5839 19.0766 33.5839 14.4399V1.95371C32.6895 1.72123 26.2123 -0.0223846 16.8 0.0002178Z" fill="#02313D"/>
</svg>
