<svg width="23" height="22" viewBox="0 0 23 22" fill="none" xmlns="http://www.w3.org/2000/svg">
<rect x="1.35714" y="1.13986" width="20.2562" height="19.2857" rx="9.64286" fill="#E6F972"/>
<rect x="1.35714" y="1.13986" width="20.2562" height="19.2857" rx="9.64286" stroke="#F7EADC" stroke-width="1.28571"/>
<path d="M18.175 4.04443C18.2719 4.02329 18.4026 4.02509 18.5236 4.10693L18.5246 4.10498C18.6463 4.18624 18.6967 4.30836 18.713 4.40869C18.7285 4.50357 18.7181 4.5994 18.7013 4.68213C18.6674 4.84935 18.5883 5.05305 18.4806 5.28076C18.2626 5.74183 17.889 6.38058 17.3703 7.18604L17.3693 7.18799L11.9806 15.4155C11.1846 16.6307 9.51408 16.8952 8.38199 15.9849V15.9839L7.15054 15.0093L7.14468 15.0054L7.35074 14.7573L7.14468 15.0044C6.78725 14.7071 5.96132 14.0402 5.29507 13.3657C4.96401 13.0306 4.65505 12.6763 4.46304 12.3521C4.36748 12.1906 4.28849 12.0157 4.26089 11.8403C4.23214 11.6573 4.25772 11.4533 4.39957 11.2827C4.54942 11.1024 4.76106 11.0529 4.94547 11.0571C5.12576 11.0614 5.3185 11.1156 5.50211 11.188C5.8723 11.334 6.29987 11.5917 6.70718 11.8677C7.11715 12.1455 7.52433 12.4551 7.85757 12.7192L8.56461 13.2974L8.56949 13.3013L9.75797 14.3354L10.0939 14.6274L10.2482 14.4106L10.2492 14.4097L11.0773 13.2534L12.7414 10.9351L16.0666 6.30029L16.0968 6.26611C16.6327 5.51954 17.0857 4.95082 17.4367 4.58252C17.6122 4.3984 17.776 4.25026 17.922 4.15674C17.9944 4.11044 18.0808 4.06507 18.175 4.04443Z" fill="#01353D" stroke="#01353D" stroke-width="0.642857"/>
</svg>
